<svg width="1920" height="1080" viewBox="0 0 1920 1080" fill="none" xmlns="http://www.w3.org/2000/svg">
<g clip-path="url(#clip0_6_2)">
<rect width="1920" height="1080" fill="#FFFDF4"/>
<path fill-rule="evenodd" clip-rule="evenodd" d="M1989.37 212.317C1943.8 254.658 1904.73 337.846 1844.03 324.246C1776.77 309.176 1779.48 204.611 1731.99 154.651C1701.88 122.978 1641.92 127.724 1620.84 89.444C1599.75 51.1441 1625.22 4.30529 1625.13 -39.4169C1625.03 -83.2578 1613.87 -125.236 1620.27 -168.608C1629.16 -228.913 1624.49 -300.505 1669.66 -341.444C1714.11 -381.742 1786.52 -388.56 1844.03 -371.448C1899.62 -354.909 1937.16 -302.446 1967.28 -252.888C1990.15 -215.249 1966.48 -160.514 1993.41 -125.66C2027.29 -81.8093 2111.27 -90.725 2132.2 -39.4169C2151.03 6.74394 2110.04 56.6009 2085.44 99.9611C2060.7 143.562 2026.1 178.196 1989.37 212.317Z" stroke="#5BCCF6"/>
<path fill-rule="evenodd" clip-rule="evenodd" d="M1996.37 196.317C1950.8 238.658 1911.73 321.846 1851.03 308.246C1783.77 293.176 1786.48 188.611 1738.99 138.651C1708.88 106.978 1648.92 111.724 1627.84 73.444C1606.75 35.1441 1632.22 -11.6947 1632.13 -55.4169C1632.03 -99.2578 1620.87 -141.236 1627.27 -184.608C1636.16 -244.913 1631.49 -316.505 1676.66 -357.444C1721.11 -397.742 1793.52 -404.56 1851.03 -387.448C1906.62 -370.909 1944.16 -318.446 1974.28 -268.888C1997.15 -231.249 1973.48 -176.514 2000.41 -141.66C2034.29 -97.8093 2118.27 -106.725 2139.2 -55.4169C2158.03 -9.25606 2117.04 40.6009 2092.44 83.9611C2067.7 127.562 2033.1 162.196 1996.37 196.317Z" stroke="#EB5353"/>
<path fill-rule="evenodd" clip-rule="evenodd" d="M184.39 725.433C216.686 740.003 215.118 794.836 247.442 809.343C281.172 824.482 321.071 793.188 356.771 802.802C403.376 815.354 462.309 828.204 481.659 872.422C499.612 913.445 476.756 970.121 442.734 999.237C404.577 1031.89 324.509 988.091 297.228 1030.26C265.455 1079.37 335.536 1149.94 310.908 1202.99C290.333 1247.31 232.428 1282.27 184.39 1273.32C132.902 1263.73 122.183 1188.93 78.7002 1159.74C43.0871 1135.83 -4.7592 1141.75 -42.3527 1121.09C-90.7895 1094.48 -180.695 1076.38 -172.473 1021.72C-162.104 952.805 -34.9116 960.745 -8.52351 896.24C11.7904 846.584 -86.9798 791.841 -59.5644 745.724C-34.3483 703.307 37.1621 740.757 86.339 736.666C119.539 733.905 154.022 711.733 184.39 725.433Z" stroke="#EB5353"/>
<path fill-rule="evenodd" clip-rule="evenodd" d="M175.39 739.433C207.686 754.003 206.118 808.836 238.442 823.343C272.172 838.482 312.071 807.188 347.771 816.802C394.376 829.354 453.309 842.204 472.659 886.422C490.612 927.445 467.756 984.121 433.734 1013.24C395.577 1045.89 315.509 1002.09 288.228 1044.26C256.455 1093.37 326.536 1163.94 301.908 1216.99C281.333 1261.31 223.428 1296.27 175.39 1287.32C123.902 1277.73 113.183 1202.93 69.7002 1173.74C34.0871 1149.83 -13.7592 1155.75 -51.3527 1135.09C-99.7895 1108.48 -189.695 1090.38 -181.473 1035.72C-171.104 966.805 -43.9116 974.745 -17.5235 910.24C2.79036 860.584 -95.9798 805.841 -68.5644 759.724C-43.3483 717.307 28.1621 754.757 77.339 750.666C110.539 747.905 145.022 725.733 175.39 739.433Z" stroke="#5BCCF6"/>
</g>
<defs>
<clipPath id="clip0_6_2">
<rect width="1920" height="1080" fill="white"/>
</clipPath>
</defs>
</svg>
