<svg width="375" height="82" viewBox="0 0 375 82" fill="none" xmlns="http://www.w3.org/2000/svg">
<path d="M4.53125 34.625C4.53125 32.7708 4.88542 31.0312 5.59375 29.4062C6.30208 27.7812 7.26042 26.3646 8.46875 25.1562C9.69792 23.9271 11.125 22.9583 12.75 22.25C14.375 21.5417 16.1146 21.1875 17.9688 21.1875H38.5312V30.1562H17.9688C17.3438 30.1562 16.7604 30.2708 16.2188 30.5C15.6771 30.7292 15.1979 31.0521 14.7812 31.4688C14.3854 31.8646 14.0729 32.3333 13.8438 32.875C13.6146 33.4167 13.5 34 13.5 34.625C13.5 35.25 13.6146 35.8438 13.8438 36.4062C14.0729 36.9479 14.3854 37.4271 14.7812 37.8438C15.1979 38.2396 15.6771 38.5521 16.2188 38.7812C16.7604 39.0104 17.3438 39.125 17.9688 39.125H26.9375C28.7917 39.125 30.5312 39.4792 32.1562 40.1875C33.8021 40.875 35.2292 41.8333 36.4375 43.0625C37.6667 44.2708 38.625 45.6979 39.3125 47.3438C40.0208 48.9688 40.375 50.7083 40.375 52.5625C40.375 54.4167 40.0208 56.1562 39.3125 57.7812C38.625 59.4062 37.6667 60.8333 36.4375 62.0625C35.2292 63.2708 33.8021 64.2292 32.1562 64.9375C30.5312 65.6458 28.7917 66 26.9375 66H7.03125V57.0312H26.9375C27.5625 57.0312 28.1458 56.9167 28.6875 56.6875C29.2292 56.4583 29.6979 56.1458 30.0938 55.75C30.5104 55.3333 30.8333 54.8542 31.0625 54.3125C31.2917 53.7708 31.4062 53.1875 31.4062 52.5625C31.4062 51.9375 31.2917 51.3542 31.0625 50.8125C30.8333 50.2708 30.5104 49.8021 30.0938 49.4062C29.6979 48.9896 29.2292 48.6667 28.6875 48.4375C28.1458 48.2083 27.5625 48.0938 26.9375 48.0938H17.9688C16.1146 48.0938 14.375 47.7396 12.75 47.0312C11.125 46.3229 9.69792 45.3646 8.46875 44.1562C7.26042 42.9271 6.30208 41.5 5.59375 39.875C4.88542 38.2292 4.53125 36.4792 4.53125 34.625ZM55.25 30.1562V48.0938H64.2188C65.4479 48.0938 66.6042 47.8646 67.6875 47.4062C68.7708 46.9271 69.7188 46.2812 70.5312 45.4688C71.3438 44.6562 71.9792 43.7083 72.4375 42.625C72.9167 41.5208 73.1562 40.3542 73.1562 39.125C73.1562 37.8958 72.9167 36.7396 72.4375 35.6562C71.9792 34.5521 71.3438 33.5938 70.5312 32.7812C69.7188 31.9688 68.7708 31.3333 67.6875 30.875C66.6042 30.3958 65.4479 30.1562 64.2188 30.1562H55.25ZM55.25 66H46.2812V21.1875H64.2188C65.8646 21.1875 67.4479 21.4062 68.9688 21.8438C70.4896 22.2604 71.9062 22.8646 73.2188 23.6562C74.5521 24.4271 75.7604 25.3646 76.8438 26.4688C77.9479 27.5521 78.8854 28.7604 79.6562 30.0938C80.4479 31.4271 81.0521 32.8542 81.4688 34.375C81.9062 35.8958 82.125 37.4792 82.125 39.125C82.125 41.5833 81.6562 43.9062 80.7188 46.0938C79.7812 48.2604 78.5 50.1562 76.875 51.7812C75.25 53.4062 73.3438 54.6875 71.1562 55.625C68.9896 56.5625 66.6771 57.0312 64.2188 57.0312H55.25V66ZM131.312 43.7812C131.312 45.9062 131.031 47.9583 130.469 49.9375C129.927 51.8958 129.156 53.7396 128.156 55.4688C127.156 57.1771 125.948 58.7396 124.531 60.1562C123.115 61.5729 121.552 62.7917 119.844 63.8125C118.135 64.8125 116.292 65.5833 114.312 66.125C112.333 66.6875 110.281 66.9688 108.156 66.9688C106.031 66.9688 103.979 66.6875 102 66.125C100.042 65.5833 98.1979 64.8125 96.4688 63.8125C94.7604 62.7917 93.1979 61.5729 91.7812 60.1562C90.3646 58.7396 89.1458 57.1771 88.125 55.4688C87.125 53.7396 86.3438 51.8958 85.7812 49.9375C85.2396 47.9583 84.9688 45.9062 84.9688 43.7812C84.9688 41.6562 85.2396 39.6042 85.7812 37.625C86.3438 35.6458 87.125 33.8021 88.125 32.0938C89.1458 30.3854 90.3646 28.8229 91.7812 27.4062C93.1979 25.9896 94.7604 24.7812 96.4688 23.7812C98.1979 22.7812 100.042 22.0104 102 21.4688C103.979 20.9062 106.031 20.625 108.156 20.625C110.281 20.625 112.333 20.9062 114.312 21.4688C116.292 22.0104 118.135 22.7812 119.844 23.7812C121.552 24.7812 123.115 25.9896 124.531 27.4062C125.948 28.8229 127.156 30.3854 128.156 32.0938C129.156 33.8021 129.927 35.6458 130.469 37.625C131.031 39.6042 131.312 41.6562 131.312 43.7812ZM122.406 43.7812C122.406 41.8229 122.031 39.9792 121.281 38.25C120.531 36.5 119.51 34.9896 118.219 33.7188C116.948 32.4271 115.438 31.4062 113.688 30.6562C111.958 29.9062 110.115 29.5312 108.156 29.5312C106.177 29.5312 104.323 29.9062 102.594 30.6562C100.865 31.4062 99.3542 32.4271 98.0625 33.7188C96.7708 34.9896 95.75 36.5 95 38.25C94.25 39.9792 93.875 41.8229 93.875 43.7812C93.875 45.7396 94.25 47.5833 95 49.3125C95.75 51.0208 96.7708 52.5208 98.0625 53.8125C99.3542 55.1042 100.865 56.125 102.594 56.875C104.323 57.625 106.177 58 108.156 58C110.115 58 111.958 57.625 113.688 56.875C115.438 56.125 116.948 55.1042 118.219 53.8125C119.51 52.5208 120.531 51.0208 121.281 49.3125C122.031 47.5833 122.406 45.7396 122.406 43.7812ZM146.188 66H137.219V21.1875H168.594V30.1562H146.188V39.125H159.625V48.0938H146.188V66ZM203.938 66H173.219V21.1875H203.938V30.1562H182.188V39.125H196.906V48.0938H182.188V57.0312H203.938V66ZM207.094 34.625C207.094 32.7708 207.448 31.0312 208.156 29.4062C208.865 27.7812 209.823 26.3646 211.031 25.1562C212.26 23.9271 213.688 22.9583 215.312 22.25C216.938 21.5417 218.677 21.1875 220.531 21.1875H241.094V30.1562H220.531C219.906 30.1562 219.323 30.2708 218.781 30.5C218.24 30.7292 217.76 31.0521 217.344 31.4688C216.948 31.8646 216.635 32.3333 216.406 32.875C216.177 33.4167 216.062 34 216.062 34.625C216.062 35.25 216.177 35.8438 216.406 36.4062C216.635 36.9479 216.948 37.4271 217.344 37.8438C217.76 38.2396 218.24 38.5521 218.781 38.7812C219.323 39.0104 219.906 39.125 220.531 39.125H229.5C231.354 39.125 233.094 39.4792 234.719 40.1875C236.365 40.875 237.792 41.8333 239 43.0625C240.229 44.2708 241.188 45.6979 241.875 47.3438C242.583 48.9688 242.938 50.7083 242.938 52.5625C242.938 54.4167 242.583 56.1562 241.875 57.7812C241.188 59.4062 240.229 60.8333 239 62.0625C237.792 63.2708 236.365 64.2292 234.719 64.9375C233.094 65.6458 231.354 66 229.5 66H209.594V57.0312H229.5C230.125 57.0312 230.708 56.9167 231.25 56.6875C231.792 56.4583 232.26 56.1458 232.656 55.75C233.073 55.3333 233.396 54.8542 233.625 54.3125C233.854 53.7708 233.969 53.1875 233.969 52.5625C233.969 51.9375 233.854 51.3542 233.625 50.8125C233.396 50.2708 233.073 49.8021 232.656 49.4062C232.26 48.9896 231.792 48.6667 231.25 48.4375C230.708 48.2083 230.125 48.0938 229.5 48.0938H220.531C218.677 48.0938 216.938 47.7396 215.312 47.0312C213.688 46.3229 212.26 45.3646 211.031 44.1562C209.823 42.9271 208.865 41.5 208.156 39.875C207.448 38.2292 207.094 36.4792 207.094 34.625ZM267.031 66H258.094V30.1562H244.625V21.1875H280.469V30.1562H267.031V66ZM294.188 66H285.219V21.1875H294.188V66ZM311.5 66H302.531V21.1875H333.906V30.1562H311.5V39.125H324.938V48.0938H311.5V66ZM358.688 66H349.75V51.9688C347.771 51.4688 345.948 50.6667 344.281 49.5625C342.635 48.4583 341.219 47.1458 340.031 45.625C338.844 44.0833 337.917 42.3854 337.25 40.5312C336.604 38.6562 336.281 36.6875 336.281 34.625V21.1875H345.25V34.625C345.25 35.8542 345.479 37.0208 345.938 38.125C346.417 39.2083 347.062 40.1562 347.875 40.9688C348.688 41.7812 349.635 42.4271 350.719 42.9062C351.823 43.3646 352.99 43.5938 354.219 43.5938C355.448 43.5938 356.604 43.3646 357.688 42.9062C358.792 42.4271 359.75 41.7812 360.562 40.9688C361.375 40.1562 362.01 39.2083 362.469 38.125C362.948 37.0208 363.188 35.8542 363.188 34.625V21.1875H372.125V34.625C372.125 36.6875 371.792 38.6562 371.125 40.5312C370.479 42.3854 369.562 44.0833 368.375 45.625C367.188 47.1458 365.771 48.4583 364.125 49.5625C362.479 50.6667 360.667 51.4688 358.688 51.9688V66Z" fill="#5BCCF6"/>
<path d="M1.53125 31.625C1.53125 29.7708 1.88542 28.0312 2.59375 26.4062C3.30208 24.7812 4.26042 23.3646 5.46875 22.1562C6.69792 20.9271 8.125 19.9583 9.75 19.25C11.375 18.5417 13.1146 18.1875 14.9688 18.1875H35.5312V27.1562H14.9688C14.3438 27.1562 13.7604 27.2708 13.2188 27.5C12.6771 27.7292 12.1979 28.0521 11.7812 28.4688C11.3854 28.8646 11.0729 29.3333 10.8438 29.875C10.6146 30.4167 10.5 31 10.5 31.625C10.5 32.25 10.6146 32.8438 10.8438 33.4062C11.0729 33.9479 11.3854 34.4271 11.7812 34.8438C12.1979 35.2396 12.6771 35.5521 13.2188 35.7812C13.7604 36.0104 14.3438 36.125 14.9688 36.125H23.9375C25.7917 36.125 27.5312 36.4792 29.1562 37.1875C30.8021 37.875 32.2292 38.8333 33.4375 40.0625C34.6667 41.2708 35.625 42.6979 36.3125 44.3438C37.0208 45.9688 37.375 47.7083 37.375 49.5625C37.375 51.4167 37.0208 53.1562 36.3125 54.7812C35.625 56.4062 34.6667 57.8333 33.4375 59.0625C32.2292 60.2708 30.8021 61.2292 29.1562 61.9375C27.5312 62.6458 25.7917 63 23.9375 63H4.03125V54.0312H23.9375C24.5625 54.0312 25.1458 53.9167 25.6875 53.6875C26.2292 53.4583 26.6979 53.1458 27.0938 52.75C27.5104 52.3333 27.8333 51.8542 28.0625 51.3125C28.2917 50.7708 28.4062 50.1875 28.4062 49.5625C28.4062 48.9375 28.2917 48.3542 28.0625 47.8125C27.8333 47.2708 27.5104 46.8021 27.0938 46.4062C26.6979 45.9896 26.2292 45.6667 25.6875 45.4375C25.1458 45.2083 24.5625 45.0938 23.9375 45.0938H14.9688C13.1146 45.0938 11.375 44.7396 9.75 44.0312C8.125 43.3229 6.69792 42.3646 5.46875 41.1562C4.26042 39.9271 3.30208 38.5 2.59375 36.875C1.88542 35.2292 1.53125 33.4792 1.53125 31.625ZM52.25 27.1562V45.0938H61.2188C62.4479 45.0938 63.6042 44.8646 64.6875 44.4062C65.7708 43.9271 66.7188 43.2812 67.5312 42.4688C68.3438 41.6562 68.9792 40.7083 69.4375 39.625C69.9167 38.5208 70.1562 37.3542 70.1562 36.125C70.1562 34.8958 69.9167 33.7396 69.4375 32.6562C68.9792 31.5521 68.3438 30.5938 67.5312 29.7812C66.7188 28.9688 65.7708 28.3333 64.6875 27.875C63.6042 27.3958 62.4479 27.1562 61.2188 27.1562H52.25ZM52.25 63H43.2812V18.1875H61.2188C62.8646 18.1875 64.4479 18.4062 65.9688 18.8438C67.4896 19.2604 68.9062 19.8646 70.2188 20.6562C71.5521 21.4271 72.7604 22.3646 73.8438 23.4688C74.9479 24.5521 75.8854 25.7604 76.6562 27.0938C77.4479 28.4271 78.0521 29.8542 78.4688 31.375C78.9062 32.8958 79.125 34.4792 79.125 36.125C79.125 38.5833 78.6562 40.9062 77.7188 43.0938C76.7812 45.2604 75.5 47.1562 73.875 48.7812C72.25 50.4062 70.3438 51.6875 68.1562 52.625C65.9896 53.5625 63.6771 54.0312 61.2188 54.0312H52.25V63ZM128.312 40.7812C128.312 42.9062 128.031 44.9583 127.469 46.9375C126.927 48.8958 126.156 50.7396 125.156 52.4688C124.156 54.1771 122.948 55.7396 121.531 57.1562C120.115 58.5729 118.552 59.7917 116.844 60.8125C115.135 61.8125 113.292 62.5833 111.312 63.125C109.333 63.6875 107.281 63.9688 105.156 63.9688C103.031 63.9688 100.979 63.6875 99 63.125C97.0417 62.5833 95.1979 61.8125 93.4688 60.8125C91.7604 59.7917 90.1979 58.5729 88.7812 57.1562C87.3646 55.7396 86.1458 54.1771 85.125 52.4688C84.125 50.7396 83.3438 48.8958 82.7812 46.9375C82.2396 44.9583 81.9688 42.9062 81.9688 40.7812C81.9688 38.6562 82.2396 36.6042 82.7812 34.625C83.3438 32.6458 84.125 30.8021 85.125 29.0938C86.1458 27.3854 87.3646 25.8229 88.7812 24.4062C90.1979 22.9896 91.7604 21.7812 93.4688 20.7812C95.1979 19.7812 97.0417 19.0104 99 18.4688C100.979 17.9062 103.031 17.625 105.156 17.625C107.281 17.625 109.333 17.9062 111.312 18.4688C113.292 19.0104 115.135 19.7812 116.844 20.7812C118.552 21.7812 120.115 22.9896 121.531 24.4062C122.948 25.8229 124.156 27.3854 125.156 29.0938C126.156 30.8021 126.927 32.6458 127.469 34.625C128.031 36.6042 128.312 38.6562 128.312 40.7812ZM119.406 40.7812C119.406 38.8229 119.031 36.9792 118.281 35.25C117.531 33.5 116.51 31.9896 115.219 30.7188C113.948 29.4271 112.438 28.4062 110.688 27.6562C108.958 26.9062 107.115 26.5312 105.156 26.5312C103.177 26.5312 101.323 26.9062 99.5938 27.6562C97.8646 28.4062 96.3542 29.4271 95.0625 30.7188C93.7708 31.9896 92.75 33.5 92 35.25C91.25 36.9792 90.875 38.8229 90.875 40.7812C90.875 42.7396 91.25 44.5833 92 46.3125C92.75 48.0208 93.7708 49.5208 95.0625 50.8125C96.3542 52.1042 97.8646 53.125 99.5938 53.875C101.323 54.625 103.177 55 105.156 55C107.115 55 108.958 54.625 110.688 53.875C112.438 53.125 113.948 52.1042 115.219 50.8125C116.51 49.5208 117.531 48.0208 118.281 46.3125C119.031 44.5833 119.406 42.7396 119.406 40.7812ZM143.188 63H134.219V18.1875H165.594V27.1562H143.188V36.125H156.625V45.0938H143.188V63ZM200.938 63H170.219V18.1875H200.938V27.1562H179.188V36.125H193.906V45.0938H179.188V54.0312H200.938V63ZM204.094 31.625C204.094 29.7708 204.448 28.0312 205.156 26.4062C205.865 24.7812 206.823 23.3646 208.031 22.1562C209.26 20.9271 210.688 19.9583 212.312 19.25C213.938 18.5417 215.677 18.1875 217.531 18.1875H238.094V27.1562H217.531C216.906 27.1562 216.323 27.2708 215.781 27.5C215.24 27.7292 214.76 28.0521 214.344 28.4688C213.948 28.8646 213.635 29.3333 213.406 29.875C213.177 30.4167 213.062 31 213.062 31.625C213.062 32.25 213.177 32.8438 213.406 33.4062C213.635 33.9479 213.948 34.4271 214.344 34.8438C214.76 35.2396 215.24 35.5521 215.781 35.7812C216.323 36.0104 216.906 36.125 217.531 36.125H226.5C228.354 36.125 230.094 36.4792 231.719 37.1875C233.365 37.875 234.792 38.8333 236 40.0625C237.229 41.2708 238.188 42.6979 238.875 44.3438C239.583 45.9688 239.938 47.7083 239.938 49.5625C239.938 51.4167 239.583 53.1562 238.875 54.7812C238.188 56.4062 237.229 57.8333 236 59.0625C234.792 60.2708 233.365 61.2292 231.719 61.9375C230.094 62.6458 228.354 63 226.5 63H206.594V54.0312H226.5C227.125 54.0312 227.708 53.9167 228.25 53.6875C228.792 53.4583 229.26 53.1458 229.656 52.75C230.073 52.3333 230.396 51.8542 230.625 51.3125C230.854 50.7708 230.969 50.1875 230.969 49.5625C230.969 48.9375 230.854 48.3542 230.625 47.8125C230.396 47.2708 230.073 46.8021 229.656 46.4062C229.26 45.9896 228.792 45.6667 228.25 45.4375C227.708 45.2083 227.125 45.0938 226.5 45.0938H217.531C215.677 45.0938 213.938 44.7396 212.312 44.0312C210.688 43.3229 209.26 42.3646 208.031 41.1562C206.823 39.9271 205.865 38.5 205.156 36.875C204.448 35.2292 204.094 33.4792 204.094 31.625ZM264.031 63H255.094V27.1562H241.625V18.1875H277.469V27.1562H264.031V63ZM291.188 63H282.219V18.1875H291.188V63ZM308.5 63H299.531V18.1875H330.906V27.1562H308.5V36.125H321.938V45.0938H308.5V63ZM355.688 63H346.75V48.9688C344.771 48.4688 342.948 47.6667 341.281 46.5625C339.635 45.4583 338.219 44.1458 337.031 42.625C335.844 41.0833 334.917 39.3854 334.25 37.5312C333.604 35.6562 333.281 33.6875 333.281 31.625V18.1875H342.25V31.625C342.25 32.8542 342.479 34.0208 342.938 35.125C343.417 36.2083 344.062 37.1562 344.875 37.9688C345.688 38.7812 346.635 39.4271 347.719 39.9062C348.823 40.3646 349.99 40.5938 351.219 40.5938C352.448 40.5938 353.604 40.3646 354.688 39.9062C355.792 39.4271 356.75 38.7812 357.562 37.9688C358.375 37.1562 359.01 36.2083 359.469 35.125C359.948 34.0208 360.188 32.8542 360.188 31.625V18.1875H369.125V31.625C369.125 33.6875 368.792 35.6562 368.125 37.5312C367.479 39.3854 366.562 41.0833 365.375 42.625C364.188 44.1458 362.771 45.4583 361.125 46.5625C359.479 47.6667 357.667 48.4688 355.688 48.9688V63Z" fill="#EB5353"/>
</svg>
