<svg width="453" height="123" viewBox="0 0 453 123" fill="none" xmlns="http://www.w3.org/2000/svg">
<path d="M23.6875 44.2344V71.1406H37.1406C38.9844 71.1406 40.7188 70.7969 42.3438 70.1094C43.9688 69.3906 45.3906 68.4219 46.6094 67.2031C47.8281 65.9844 48.7812 64.5625 49.4688 62.9375C50.1875 61.2812 50.5469 59.5312 50.5469 57.6875C50.5469 55.8438 50.1875 54.1094 49.4688 52.4844C48.7812 50.8281 47.8281 49.3906 46.6094 48.1719C45.3906 46.9531 43.9688 46 42.3438 45.3125C40.7188 44.5938 38.9844 44.2344 37.1406 44.2344H23.6875ZM23.6875 98H10.2344V30.7812H37.1406C39.6094 30.7812 41.9844 31.1094 44.2656 31.7656C46.5469 32.3906 48.6719 33.2969 50.6406 34.4844C52.6406 35.6406 54.4531 37.0469 56.0781 38.7031C57.7344 40.3281 59.1406 42.1406 60.2969 44.1406C61.4844 46.1406 62.3906 48.2812 63.0156 50.5625C63.6719 52.8438 64 55.2188 64 57.6875C64 61.375 63.2969 64.8594 61.8906 68.1406C60.4844 71.3906 58.5625 74.2344 56.125 76.6719C53.6875 79.1094 50.8281 81.0312 47.5469 82.4375C44.2969 83.8438 40.8281 84.5469 37.1406 84.5469H23.6875V98ZM137.781 64.6719C137.781 67.8594 137.359 70.9375 136.516 73.9062C135.703 76.8438 134.547 79.6094 133.047 82.2031C131.547 84.7656 129.734 87.1094 127.609 89.2344C125.484 91.3594 123.141 93.1875 120.578 94.7188C118.016 96.2188 115.25 97.375 112.281 98.1875C109.312 99.0312 106.234 99.4531 103.047 99.4531C99.8594 99.4531 96.7812 99.0312 93.8125 98.1875C90.875 97.375 88.1094 96.2188 85.5156 94.7188C82.9531 93.1875 80.6094 91.3594 78.4844 89.2344C76.3594 87.1094 74.5312 84.7656 73 82.2031C71.5 79.6094 70.3281 76.8438 69.4844 73.9062C68.6719 70.9375 68.2656 67.8594 68.2656 64.6719C68.2656 61.4844 68.6719 58.4062 69.4844 55.4375C70.3281 52.4688 71.5 49.7031 73 47.1406C74.5312 44.5781 76.3594 42.2344 78.4844 40.1094C80.6094 37.9844 82.9531 36.1719 85.5156 34.6719C88.1094 33.1719 90.875 32.0156 93.8125 31.2031C96.7812 30.3594 99.8594 29.9375 103.047 29.9375C106.234 29.9375 109.312 30.3594 112.281 31.2031C115.25 32.0156 118.016 33.1719 120.578 34.6719C123.141 36.1719 125.484 37.9844 127.609 40.1094C129.734 42.2344 131.547 44.5781 133.047 47.1406C134.547 49.7031 135.703 52.4688 136.516 55.4375C137.359 58.4062 137.781 61.4844 137.781 64.6719ZM124.422 64.6719C124.422 61.7344 123.859 58.9688 122.734 56.375C121.609 53.75 120.078 51.4844 118.141 49.5781C116.234 47.6406 113.969 46.1094 111.344 44.9844C108.75 43.8594 105.984 43.2969 103.047 43.2969C100.078 43.2969 97.2969 43.8594 94.7031 44.9844C92.1094 46.1094 89.8438 47.6406 87.9062 49.5781C85.9688 51.4844 84.4375 53.75 83.3125 56.375C82.1875 58.9688 81.625 61.7344 81.625 64.6719C81.625 67.6094 82.1875 70.375 83.3125 72.9688C84.4375 75.5312 85.9688 77.7812 87.9062 79.7188C89.8438 81.6562 92.1094 83.1875 94.7031 84.3125C97.2969 85.4375 100.078 86 103.047 86C105.984 86 108.75 85.4375 111.344 84.3125C113.969 83.1875 116.234 81.6562 118.141 79.7188C120.078 77.7812 121.609 75.5312 122.734 72.9688C123.859 70.375 124.422 67.6094 124.422 64.6719ZM193.703 98H146.641V30.7812H160.094V84.5469H193.703V98ZM240.297 71.1406V57.6875C240.297 55.8438 239.938 54.1094 239.219 52.4844C238.531 50.8281 237.578 49.3906 236.359 48.1719C235.141 46.9531 233.703 46 232.047 45.3125C230.422 44.5938 228.688 44.2344 226.844 44.2344C225 44.2344 223.25 44.5938 221.594 45.3125C219.969 46 218.547 46.9531 217.328 48.1719C216.109 49.3906 215.141 50.8281 214.422 52.4844C213.734 54.1094 213.391 55.8438 213.391 57.6875V71.1406H240.297ZM253.75 98H240.297V84.5469H213.391V98H199.984V57.6875C199.984 53.9688 200.688 50.4844 202.094 47.2344C203.5 43.9531 205.406 41.0938 207.812 38.6562C210.25 36.2188 213.094 34.2969 216.344 32.8906C219.625 31.4844 223.125 30.7812 226.844 30.7812C230.562 30.7812 234.047 31.4844 237.297 32.8906C240.578 34.2969 243.438 36.2188 245.875 38.6562C248.312 41.0938 250.234 43.9531 251.641 47.2344C253.047 50.4844 253.75 53.9688 253.75 57.6875V98ZM291.578 98H278.172V44.2344H257.969V30.7812H311.734V44.2344H291.578V98ZM332.312 98H318.859V30.7812H332.312V98ZM358.281 98H344.828V30.7812H391.891V44.2344H358.281V57.6875H378.438V71.1406H358.281V98ZM429.062 98H415.656V76.9531C412.688 76.2031 409.953 75 407.453 73.3438C404.984 71.6875 402.859 69.7188 401.078 67.4375C399.297 65.125 397.906 62.5781 396.906 59.7969C395.938 56.9844 395.453 54.0312 395.453 50.9375V30.7812H408.906V50.9375C408.906 52.7812 409.25 54.5312 409.938 56.1875C410.656 57.8125 411.625 59.2344 412.844 60.4531C414.062 61.6719 415.484 62.6406 417.109 63.3594C418.766 64.0469 420.516 64.3906 422.359 64.3906C424.203 64.3906 425.938 64.0469 427.562 63.3594C429.219 62.6406 430.656 61.6719 431.875 60.4531C433.094 59.2344 434.047 57.8125 434.734 56.1875C435.453 54.5312 435.812 52.7812 435.812 50.9375V30.7812H449.219V50.9375C449.219 54.0312 448.719 56.9844 447.719 59.7969C446.75 62.5781 445.375 65.125 443.594 67.4375C441.812 69.7188 439.688 71.6875 437.219 73.3438C434.75 75 432.031 76.2031 429.062 76.9531V98Z" fill="#5BCCF6"/>
<path d="M19.6875 40.2344V67.1406H33.1406C34.9844 67.1406 36.7188 66.7969 38.3438 66.1094C39.9688 65.3906 41.3906 64.4219 42.6094 63.2031C43.8281 61.9844 44.7812 60.5625 45.4688 58.9375C46.1875 57.2812 46.5469 55.5312 46.5469 53.6875C46.5469 51.8438 46.1875 50.1094 45.4688 48.4844C44.7812 46.8281 43.8281 45.3906 42.6094 44.1719C41.3906 42.9531 39.9688 42 38.3438 41.3125C36.7188 40.5938 34.9844 40.2344 33.1406 40.2344H19.6875ZM19.6875 94H6.23438V26.7812H33.1406C35.6094 26.7812 37.9844 27.1094 40.2656 27.7656C42.5469 28.3906 44.6719 29.2969 46.6406 30.4844C48.6406 31.6406 50.4531 33.0469 52.0781 34.7031C53.7344 36.3281 55.1406 38.1406 56.2969 40.1406C57.4844 42.1406 58.3906 44.2812 59.0156 46.5625C59.6719 48.8438 60 51.2188 60 53.6875C60 57.375 59.2969 60.8594 57.8906 64.1406C56.4844 67.3906 54.5625 70.2344 52.125 72.6719C49.6875 75.1094 46.8281 77.0312 43.5469 78.4375C40.2969 79.8438 36.8281 80.5469 33.1406 80.5469H19.6875V94ZM133.781 60.6719C133.781 63.8594 133.359 66.9375 132.516 69.9062C131.703 72.8438 130.547 75.6094 129.047 78.2031C127.547 80.7656 125.734 83.1094 123.609 85.2344C121.484 87.3594 119.141 89.1875 116.578 90.7188C114.016 92.2188 111.25 93.375 108.281 94.1875C105.312 95.0312 102.234 95.4531 99.0469 95.4531C95.8594 95.4531 92.7812 95.0312 89.8125 94.1875C86.875 93.375 84.1094 92.2188 81.5156 90.7188C78.9531 89.1875 76.6094 87.3594 74.4844 85.2344C72.3594 83.1094 70.5312 80.7656 69 78.2031C67.5 75.6094 66.3281 72.8438 65.4844 69.9062C64.6719 66.9375 64.2656 63.8594 64.2656 60.6719C64.2656 57.4844 64.6719 54.4062 65.4844 51.4375C66.3281 48.4688 67.5 45.7031 69 43.1406C70.5312 40.5781 72.3594 38.2344 74.4844 36.1094C76.6094 33.9844 78.9531 32.1719 81.5156 30.6719C84.1094 29.1719 86.875 28.0156 89.8125 27.2031C92.7812 26.3594 95.8594 25.9375 99.0469 25.9375C102.234 25.9375 105.312 26.3594 108.281 27.2031C111.25 28.0156 114.016 29.1719 116.578 30.6719C119.141 32.1719 121.484 33.9844 123.609 36.1094C125.734 38.2344 127.547 40.5781 129.047 43.1406C130.547 45.7031 131.703 48.4688 132.516 51.4375C133.359 54.4062 133.781 57.4844 133.781 60.6719ZM120.422 60.6719C120.422 57.7344 119.859 54.9688 118.734 52.375C117.609 49.75 116.078 47.4844 114.141 45.5781C112.234 43.6406 109.969 42.1094 107.344 40.9844C104.75 39.8594 101.984 39.2969 99.0469 39.2969C96.0781 39.2969 93.2969 39.8594 90.7031 40.9844C88.1094 42.1094 85.8438 43.6406 83.9062 45.5781C81.9688 47.4844 80.4375 49.75 79.3125 52.375C78.1875 54.9688 77.625 57.7344 77.625 60.6719C77.625 63.6094 78.1875 66.375 79.3125 68.9688C80.4375 71.5312 81.9688 73.7812 83.9062 75.7188C85.8438 77.6562 88.1094 79.1875 90.7031 80.3125C93.2969 81.4375 96.0781 82 99.0469 82C101.984 82 104.75 81.4375 107.344 80.3125C109.969 79.1875 112.234 77.6562 114.141 75.7188C116.078 73.7812 117.609 71.5312 118.734 68.9688C119.859 66.375 120.422 63.6094 120.422 60.6719ZM189.703 94H142.641V26.7812H156.094V80.5469H189.703V94ZM236.297 67.1406V53.6875C236.297 51.8438 235.938 50.1094 235.219 48.4844C234.531 46.8281 233.578 45.3906 232.359 44.1719C231.141 42.9531 229.703 42 228.047 41.3125C226.422 40.5938 224.688 40.2344 222.844 40.2344C221 40.2344 219.25 40.5938 217.594 41.3125C215.969 42 214.547 42.9531 213.328 44.1719C212.109 45.3906 211.141 46.8281 210.422 48.4844C209.734 50.1094 209.391 51.8438 209.391 53.6875V67.1406H236.297ZM249.75 94H236.297V80.5469H209.391V94H195.984V53.6875C195.984 49.9688 196.688 46.4844 198.094 43.2344C199.5 39.9531 201.406 37.0938 203.812 34.6562C206.25 32.2188 209.094 30.2969 212.344 28.8906C215.625 27.4844 219.125 26.7812 222.844 26.7812C226.562 26.7812 230.047 27.4844 233.297 28.8906C236.578 30.2969 239.438 32.2188 241.875 34.6562C244.312 37.0938 246.234 39.9531 247.641 43.2344C249.047 46.4844 249.75 49.9688 249.75 53.6875V94ZM287.578 94H274.172V40.2344H253.969V26.7812H307.734V40.2344H287.578V94ZM328.312 94H314.859V26.7812H328.312V94ZM354.281 94H340.828V26.7812H387.891V40.2344H354.281V53.6875H374.438V67.1406H354.281V94ZM425.062 94H411.656V72.9531C408.688 72.2031 405.953 71 403.453 69.3438C400.984 67.6875 398.859 65.7188 397.078 63.4375C395.297 61.125 393.906 58.5781 392.906 55.7969C391.938 52.9844 391.453 50.0312 391.453 46.9375V26.7812H404.906V46.9375C404.906 48.7812 405.25 50.5312 405.938 52.1875C406.656 53.8125 407.625 55.2344 408.844 56.4531C410.062 57.6719 411.484 58.6406 413.109 59.3594C414.766 60.0469 416.516 60.3906 418.359 60.3906C420.203 60.3906 421.938 60.0469 423.562 59.3594C425.219 58.6406 426.656 57.6719 427.875 56.4531C429.094 55.2344 430.047 53.8125 430.734 52.1875C431.453 50.5312 431.812 48.7812 431.812 46.9375V26.7812H445.219V46.9375C445.219 50.0312 444.719 52.9844 443.719 55.7969C442.75 58.5781 441.375 61.125 439.594 63.4375C437.812 65.7188 435.688 67.6875 433.219 69.3438C430.75 71 428.031 72.2031 425.062 72.9531V94Z" fill="#EB5353"/>
</svg>
